<?xml version="1.0" encoding="UTF-8" standalone="no"?>
<!DOCTYPE svg PUBLIC "-//W3C//DTD SVG 1.1//EN" "http://www.w3.org/Graphics/SVG/1.1/DTD/svg11.dtd">
<svg width="100%" height="100%" viewBox="0 0 40 40" version="1.1" xmlns="http://www.w3.org/2000/svg" xmlns:xlink="http://www.w3.org/1999/xlink" xml:space="preserve" xmlns:serif="http://www.serif.com/" style="fill-rule:evenodd;clip-rule:evenodd;stroke-linejoin:round;stroke-miterlimit:2;">
    <g transform="matrix(0.666667,0,0,0.666667,0,0)">
        <circle cx="30" cy="30" r="30" style="fill:rgb(255,83,13);"/>
    </g>
    <g transform="matrix(0.666667,0,0,0.666667,0,0)">
        <circle cx="30" cy="30" r="30" style="fill:rgb(63,87,101);"/>
    </g>
    <g transform="matrix(1.85546,0,0,1.85546,11.14,1.41219)">
        <path d="M9.373,5.917L9.373,3.533C9.373,3.05 8.98,2.657 8.497,2.657L1.112,2.657C0.628,2.657 0.236,3.05 0.236,3.533L0.236,5.917C0.236,6.401 0.628,6.793 1.112,6.793L8.497,6.793C8.981,6.793 9.373,6.401 9.373,5.917ZM3.321,6.167L3.277,5.053C3.264,4.703 3.251,4.28 3.251,3.857L3.238,3.857C3.148,4.228 3.027,4.643 2.914,4.983L2.56,6.119L2.047,6.119L1.736,4.992C1.641,4.651 1.542,4.237 1.473,3.857L1.464,3.857C1.447,4.25 1.434,4.698 1.412,5.061L1.36,6.166L0.752,6.166L0.938,3.256L1.814,3.256L2.099,4.227C2.19,4.563 2.28,4.926 2.345,5.267L2.358,5.267C2.44,4.931 2.539,4.546 2.634,4.223L2.945,3.256L3.804,3.256L3.964,6.166L3.321,6.166L3.321,6.167ZM6.29,4.833C6.065,5.044 5.733,5.14 5.344,5.14C5.258,5.14 5.18,5.136 5.119,5.127L5.119,6.168L4.467,6.168L4.467,3.295C4.67,3.26 4.955,3.234 5.356,3.234C5.762,3.234 6.051,3.312 6.246,3.467C6.432,3.614 6.557,3.856 6.557,4.141C6.557,4.426 6.462,4.668 6.29,4.833ZM6.855,6.016L6.988,5.523C7.105,5.584 7.372,5.696 7.64,5.696C7.982,5.696 8.154,5.532 8.154,5.321C8.154,5.045 7.879,4.92 7.589,4.92L7.321,4.92L7.321,4.449L7.576,4.449C7.796,4.445 8.077,4.363 8.077,4.125C8.077,3.957 7.938,3.831 7.662,3.831C7.433,3.831 7.192,3.93 7.075,3.999L6.941,3.524C7.109,3.416 7.446,3.312 7.809,3.312C8.409,3.312 8.742,3.627 8.742,4.011C8.742,4.309 8.573,4.542 8.227,4.663L8.227,4.672C8.565,4.732 8.836,4.987 8.836,5.354C8.836,5.851 8.399,6.213 7.688,6.213C7.325,6.214 7.018,6.119 6.855,6.016Z" style="fill:white;fill-rule:nonzero;"/>
    </g>
    <g transform="matrix(1.85546,0,0,1.85546,11.14,1.41219)">
        <path d="M5.391,3.731C5.257,3.731 5.166,3.744 5.119,3.757L5.119,4.616C5.176,4.629 5.244,4.634 5.339,4.634C5.689,4.634 5.904,4.457 5.904,4.159C5.905,3.892 5.719,3.731 5.391,3.731Z" style="fill:white;fill-rule:nonzero;"/>
    </g>
    <g transform="matrix(0.544285,0,0,0.544285,11.8057,17.6577)">
        <g transform="matrix(1,0,0,1,0.162976,-2.02394)">
            <path d="M25.462,19.105L25.462,25.953L4.515,25.953L4.515,19.105L0.489,19.105L0.489,27.966C0.489,29.077 1.389,29.978 2.505,29.978L27.472,29.978C28.587,29.978 29.488,29.078 29.488,27.966L29.488,19.105L25.462,19.105Z" style="fill:white;fill-rule:nonzero;"/>
        </g>
        <g transform="matrix(1,0,0,1,0.162976,-2.02394)">
            <path d="M14.62,18.426L8.856,11.461C8.856,11.461 7.979,10.633 8.93,10.633L12.178,10.633L12.178,9.217L12.178,0.494C12.178,0.494 12.049,0 12.793,0L17.365,0C17.901,0 17.889,0.416 17.889,0.416L17.889,10.424L20.887,10.424C22.041,10.424 21.172,11.291 21.172,11.291C21.172,11.291 16.268,17.801 15.584,18.484C15.092,18.979 14.62,18.426 14.62,18.426Z" style="fill:white;fill-rule:nonzero;"/>
        </g>
    </g>
</svg>
